<svg xmlns="http://www.w3.org/2000/svg" fill="#fff" xml:space="preserve" fill-rule="evenodd" clip-rule="evenodd" image-rendering="optimizeQuality" shape-rendering="geometricPrecision" text-rendering="geometricPrecision" viewBox="0 0 23459 12295"><path d="m0 3167 856-39v2926h1554V3128l856 39V1778H0zM5900 1778v2382c0 334-12 629-425 629-414 0-426-295-426-629V1778H3496v2529c0 1248 782 1815 1979 1815 1196 0 1979-567 1979-1815V1778H5900zM11610 5730c482 244 1106 392 1645 392 924 0 1854-505 1854-1526 0-725-476-1077-1134-1224l-352-80c-119-28-311-51-311-210 0-175 198-226 334-226 335 0 635 141 902 323l419-1095c-419-255-867-374-1355-374-930 0-1854 567-1854 1582 0 669 510 1027 1117 1134l312 57c142 28 346 45 346 238s-244 255-397 255c-357 0-692-175-970-391l-79-62-477 1207z"/><path d="M561 8788H279l143-333 139 333zm36 86 98 236h103l-374-871-384 871h102l100-236h355z"/><path d="M1345 8394c-44-82-122-129-215-129-123 0-232 82-232 211 0 119 83 169 180 213l51 22c77 35 153 69 153 166 0 93-81 162-171 162-89 0-154-70-166-155l-90 26c26 129 125 215 259 215 144 0 261-112 261-257 0-133-92-187-200-234l-55-24c-56-26-130-59-130-130 0-76 64-129 138-129 71 0 110 33 143 90l74-47zM1966 8394c-44-82-122-129-215-129-123 0-233 82-233 211 0 119 84 169 181 213l51 22c77 35 153 69 153 166 0 93-81 162-171 162-89 0-154-70-166-155l-91 26c27 129 126 215 260 215 144 0 261-112 261-257 0-133-92-187-200-234l-55-24c-56-26-130-59-130-130 0-76 64-129 138-129 70 0 110 33 143 90l74-47z"/><path d="M2528 8351c190 0 340 155 340 344 0 187-152 344-340 344-189 0-341-157-341-344 0-189 150-344 341-344zm0-86c-238 0-434 193-434 431 0 239 196 429 434 429 237 0 433-190 433-429 0-238-196-431-433-431zM3728 8346c-74-55-156-81-248-81-238 0-433 195-433 433 0 236 198 427 433 427 88 0 176-30 248-82v-115c-66 67-158 111-251 111-187 0-338-161-338-344s150-344 335-344c96 0 188 42 254 110v-115z"/><path d="M3986 8279h-93v831h93z"/><path d="M4599 8788h-281l142-333 139 333zm37 86 98 236h102l-374-871-383 871h101l101-236h355z"/><path d="M5064 8365h203v-86h-496v86h201v745h92zM5461 8279h-93v831h93z"/><path d="M6023 8351c191 0 340 155 340 344 0 187-152 344-340 344-189 0-341-157-341-344 0-189 150-344 341-344zm0-86c-237 0-434 193-434 431 0 239 197 429 434 429s433-190 433-429c0-238-196-431-433-431z"/><path d="M6595 9110h92v-640l649 678v-869h-93v644l-648-679z"/><path d="M8250 8351c190 0 340 155 340 344 0 187-152 344-340 344-189 0-341-157-341-344 0-189 150-344 341-344zm0-86c-237 0-434 193-434 431 0 239 197 429 434 429s433-190 433-429c0-238-196-431-433-431z"/><path d="M9194 8365v-86h-378v831h93v-412h276v-86h-276v-247zM9909 8365h203v-86h-496v86h201v745h92zM10301 8279h-92v520c0 95 9 171 81 241 57 55 137 85 215 85 84 0 167-33 224-95 66-68 73-140 73-231v-520h-93v495c0 65 4 138-41 191-38 46-103 74-163 74s-131-29-167-80c-39-53-37-123-37-185v-495z"/><path d="M11064 8745h24l251 365h114l-265-372c128-11 208-102 208-230 0-187-146-229-304-229h-120v831h92v-365zm0-380h28c111 0 212 13 212 150 0 129-106 149-211 149h-29v-299z"/><path d="M11667 8635v-356h-93v831h93v-358l23-23 341 381h128l-404-444 390-387h-124zM12348 8279h-93v831h93zM12969 8394c-44-82-122-129-215-129-123 0-232 82-232 211 0 119 84 169 181 213l50 22c77 35 154 69 154 166 0 93-82 162-171 162-90 0-155-70-167-155l-90 26c26 129 125 215 259 215 144 0 261-112 261-257 0-133-91-187-199-234l-56-24c-56-26-130-59-130-130 0-76 64-129 138-129 71 0 110 33 144 90l73-47zM13236 8616v-337h-92v831h92v-408h426v408h93v-831h-93v337zM14495 8365h203v-86h-496v86h201v745h92z"/><path d="M14890 8745h23l251 365h114l-265-372c128-11 209-102 209-230 0-187-147-229-305-229h-120v831h93v-365zm0-380h27c112 0 212 13 212 150 0 129-106 149-211 149h-28v-299zM15843 8788h-281l142-333 139 333zm36 86 98 236h103l-374-871-384 871h102l100-236h355z"/><path d="M16088 8279h-100l337 881 338-881h-101l-237 634zM16759 9110h431v-86h-339v-326h329v-86h-329v-247h339v-86h-431zM17445 8279h-93v831h322v-86h-229z"/><path d="M18554 8788h-281l142-333 139 333zm36 86 99 236h102l-374-871-383 871h101l100-236h355z"/><path d="M19314 8692v86h247c0 155-152 261-296 261-87 0-176-46-236-106-62-63-97-147-97-235 0-187 150-347 339-347 123 0 216 58 286 156l67-63c-88-114-206-179-352-179a433 433 0 0 0-433 432c0 234 194 428 428 428 116 0 231-51 308-139 76-88 88-181 86-294h-347zM19799 9110h431v-86h-339v-326h329v-86h-329v-247h339v-86h-431zM20398 9110h92v-640l649 678v-869h-93v644l-648-679z"/><path d="M21953 8346c-74-55-155-81-248-81-238 0-433 195-433 433 0 236 198 427 433 427 88 0 177-30 248-82v-115c-66 67-157 111-251 111-186 0-337-161-337-344s149-344 335-344c96 0 187 42 253 110v-115z"/><path d="M22211 8279h-93v831h93zM22381 9110h431v-86h-338v-326h329v-86h-329v-247h338v-86h-431zM23426 8394c-44-82-123-129-215-129-124 0-233 82-233 211 0 119 84 169 181 213l51 22c77 35 153 69 153 166 0 93-82 162-171 162s-154-70-166-155l-91 26c27 129 126 215 259 215 145 0 261-112 261-257 0-133-91-187-199-234l-55-24c-56-26-130-59-130-130 0-76 64-129 138-129 70 0 110 33 143 90l74-47zM363 7022h168v-141H34v141h167v690h162z"/><path d="M695 7378c0 203 86 356 309 356 222 0 308-153 308-356v-497h-162v465c0 103-9 247-146 247-138 0-147-144-147-247v-465H695v497zm425-796c-48 0-88 40-88 88 0 49 40 88 88 88 49 0 89-39 89-88 0-48-40-88-89-88zm-232 0c-49 0-88 40-88 88 0 49 39 88 88 88 48 0 88-39 88-88 0-48-40-88-88-88zM1700 7013h22c86 0 151 20 151 122s-63 128-152 128h-21v-250zm165 348c112-18 170-124 170-230 0-178-114-250-278-250h-219v831h162v-335h2l202 335h196l-235-351z"/><path d="M2427 7231h-2v-350h-162v831h162v-374h2l266 374h208l-333-448 315-383h-199z"/><path d="M3219 6881h-162v831h162v-831zm-81-221c-48 0-88 40-88 88 0 49 40 89 88 89 49 0 88-40 88-89 0-48-39-88-88-88z"/><path d="M3625 7331v381h162v-381l262-450h-189l-159 289-146-289h-188zM4631 7022v-141h-430v831h430v-141h-268v-225h258v-141h-258v-183zM6162 6951c-51-56-153-92-227-92-140 0-243 111-243 249 0 129 78 183 185 227 65 25 145 50 145 136 0 64-41 120-107 120-70 0-128-58-150-122l-105 103c58 96 141 162 256 162 170 0 273-118 273-284 0-279-329-221-329-361 0-54 49-94 101-94 54 0 94 27 125 69l76-113zM6814 7022v-141h-430v831h430v-141h-268v-225h258v-141h-258v-183zM7212 7331v381h162v-381l262-450h-190l-158 289-146-289h-188z"/><path d="M8068 7404h-197l91-302h3l103 302zm46 133 63 175h174l-316-853h-125l-325 853h171l69-175h289z"/><path d="M8673 7208v-327h-162v831h162v-372h300v372h162v-831h-162v327z"/><path d="M9779 7404h-198l92-302h2l104 302zm45 133 64 175h173l-315-853h-126l-324 853h171l68-175h289z"/><path d="M10425 7022h167v-141h-497v141h168v690h162z"/><path d="M12020 7404h-197l91-302h3l103 302zm46 133 63 175h174l-316-853h-125l-325 853h171l69-175h289z"/><path d="M13019 6907c-56-31-120-48-185-48-244 0-411 208-411 444 0 229 173 431 407 431 68 0 128-21 189-50v-192c-45 51-115 88-184 88-151 0-244-140-244-280 0-144 89-287 245-287 69 0 138 33 183 88v-194zM13666 7022v-141h-430v831h430v-141h-268v-225h258v-141h-258v-183zM13883 7712h162v-565h2l438 582h117v-848h-162v559h-3l-437-581h-117zM15101 7022h168v-141h-497v141h167v690h162z"/><path d="M15784 7404h-197l91-302h3l103 302zm45 133 64 175h173l-315-853h-126l-324 853h171l69-175h288z"/><path d="M16389 6881h-162v831h391v-141h-229z"/><path d="M17192 7404h-197l91-302h2l104 302zm45 133 64 175h173l-315-853h-126l-324 853h171l68-175h289zM17797 7013h22c86 0 151 20 151 122s-63 128-152 128h-21v-250zm165 348c112-18 170-124 170-230 0-178-114-250-278-250h-219v831h162v-335h2l202 335h196l-235-351z"/><path d="M18522 6881h-162v831h162z"/><path d="M19755 7011h21c68 0 117 22 117 107 0 86-39 109-118 109h-20v-216zm-162 701h255c151 0 265-73 265-236 0-91-44-191-142-208 52-33 73-102 73-161 0-166-95-226-249-226h-202v831zm162-362h26c82 0 170 5 170 113s-75 119-162 119h-34v-232zM20474 6881h-162v831h162v-831zm-80-221c-49 0-88 40-88 88 0 49 39 89 88 89 48 0 88-40 88-89 0-48-40-88-88-88zM20862 7013h22c86 0 151 20 151 122s-63 128-152 128h-21v-250zm165 348c111-18 170-124 170-230 0-178-114-250-278-250h-219v831h162v-335h2l202 335h196l-235-351z"/><path d="M21586 6881h-162v831h392v-141h-230z"/><path d="M22138 6881h-162v831h162v-831zm-81-221c-48 0-88 40-88 88 0 49 40 89 88 89 49 0 89-40 89-89 0-48-40-88-89-88zM22739 7270v132h177c-4 101-89 189-190 189-157 0-235-154-235-291 0-138 77-298 234-298 86 0 156 57 189 132l144-77c-64-127-188-198-329-198-248 0-406 204-406 441 0 229 154 434 396 434 258 0 378-208 378-443v-21h-358zm-219-626c10 102 88 172 190 172 103 0 181-70 191-172h-108c-10 44-34 78-83 78-48 0-72-34-82-78h-108zM23451 6881h-162v831h162v-831zm-80-221c-49 0-88 40-88 88 0 49 39 89 88 89 48 0 88-40 88-89 0-48-40-88-88-88z"/><path d="M195 319H5v918h3120V319H371zM8069 319h-189v918h15571V319H8246zM5168 3120c0-169 137-307 307-307 169 0 306 138 306 307s-137 306-306 306c-170 0-307-137-307-306zM5168 2112c0-169 137-306 307-306 169 0 306 137 306 306s-137 307-306 307a307 307 0 0 1-307-307z"/><path d="M9310 2946h119c266 0 499 40 499 369 0 317-255 357-511 357h-107v-726zM7790 6054h1520V4681h28l680 1373h1792l-930-1390c-85-124-181-192-260-255v-34c578-193 827-465 827-1111 0-1078-816-1486-1780-1486H7790v4276zM16997 4506l283-1305h57c28 182 57 369 102 550l181 755h-623zm-278 1015h1174l141 533h1645l-1525-4276h-1719l-1485 4276h1644l125-533zM21184 4324h153c249 0 646-5 646 352 0 351-368 357-623 357h-176v-709zm-1441 1730h2116c748 0 1565-301 1565-1180 0-510-295-850-760-1015v-34c374-119 561-487 561-862 0-986-845-1185-1673-1185h-1809v4276zm1441-2631v-613h107c227 0 516-23 516 295 0 295-255 318-482 318h-141z"/><path d="M7074 741c-2 1-3 1-4 2s-2 2-4 2c-1 1-7 4-9 6-2 1-7 1-7 3-1 1-2 2-3 4-1 1-8 7-10 7-1 0-2 0-4 1-1 1-8 5-9 6s-1 1-1 3c0 1-1 3-3 2-1-1-4-4-5-4s-4 1-6 1c-2 1-4 1-4 6-1 4-1 9-5 11-3 1-8 4-9 5s-4 5-3 8c0 2 1 5-1 7-1 2-3 4-3 6-1 1-2 5-3 8-2 2-2 5-4 6-1 1-6 5-4 5 1 0 5-2 6-2s1-1 2-2 2-4 4-4 6 2 4 3c-2 0-5 1-4 2 2 1 4 2 5 4s9 6 9 6c4 2 9 4 11 4 1 0 4 1 4 2s3 11 3 14 2 17-2 17-8 0-10 2c-2 1-1 1-3 3-2 1-4 3-4 3-1 1-4 4-6 7s-4 5-6 7 0 2 0 4c1 1 1 2 0 3 0 1-3 3-6 2s-7 1-9 2c-2 0-8 1-10 1-1 1-6-2-8-3s-4 1-6 1c-3 0-3-2-2-5v-6c-1-1-5-7-6-8-1-2-4-2-4-4 0-1 5-2 6-2 1-1-2-5-3-6s-7 0-9 0-3-9-4-11-2-1-3-1c-1 1 1 6 0 7 0 2-5 2-7 2-1 1-2 2-2 4-1 2-7 4-9 5-2 0-9 2-11 2-3 0-4-5-5-9-1-3-11-2-13-2s-5-1-6-2c-2-2-5-2-7 0s-3 3-4 5c-2 2-2 2-4 2h-7c-2 0-2-3-3-5 0-2-4-4-6-4-2-1-1 0-1 2 0 1-2 2-4 3h-6c-2-1-7 3-10 4-2 0-4-3-3-5s5-3 7-4 2-4 2-6c0-3 2-3 3-6 2-2 3-2 6-2 2 0-1-3-3-5-1-1 0-2 2-3 1-1 2-1 4-1s4 0 9-2 2-1 2-3c0-1-4 0-6 0s1-2 1-4c1-1-2-5-3-7 0-2-3-2-4-4-2-3 1-9 2-11s5-3 6-4 5-2 7-3 4-1 6-2c1-1 5-2 6-2 1-1 10-5 11-6 2 0 8-1 11-1s4-3 6-4c3-1 8 0 9 0 2 0 9 2 10 2 2 0 4-1 5-1 2-1 11-4 13-4 1-1 5 1 7 2s5 0 8-2c2-1 8-1 10-1 3 1 9-3 12-4 2-2 6-5 8-6 1-1 4-5 6-7s1-5 1-7 2-4 3-6-10-3-12-3-2 1-3 3 0 3 1 3c1 1 4 0 6 0s-1 5-2 6c-1 2-9 1-11 1-1-1-2-3-2-4 0-2-1-3-2-5-2-2-4-2-5-2-2-1 0-3 1-5 0-1 0-2 1-4 0-2 5 0 7 0 1 1 7-4 9-4 1-1 7 0 9 0 3-1 6-2 7-3 2-2 5-3 6-3 2 0 9 1 12 0 2-1 0 0 0-2s1-1 2-2c2 0 3-1 3-2 1-1 3-1 4-2 1 0 2-1 4-2 3-2 4-3 6-3s6-1 8-1 4 0 7 1c3 0 6 0 8 1 0 0 2 1 4 1 3 0 6 0 8 1 1 0 5 2 6 2s5 2 6 3c1 0 7 1 5 2zM5096 930c-2 3-6 4-11 6-6 3-10 12-13 18-2 6-11 10-16 12-5 1-5-11-7-14-1-4-15-12-20-16s-24-16-27-18-14-9-22-15c-9-7-2-31-1-36s2-15 3-20 7-1 9-1c3 0 5 0 7-2s8-1 13-3c4-2 5-5 7-7 3-3 1-9 1-13 0-3-3-10-4-14-1-3 1-9 1-11s-2-3-5-6c-3-2 1-2 4-4 2-2 5 2 8 6 0 0 4 5 9 10s6 6 9 13c2 6 2 8 2 12s-3 6-7 7c-3 1-2 7-1 11 0 5-1 5-3 9-1 3 5 8 10 12s10 10 14 15 4-6 4-10 1-6 3-9 6 7 7 10c0 3 4 7 6 10s0 6-1 7c0 2 4 9 6 13 2 3 4 6 5 9 0 4 7 11 8 12 2 2 3 3 2 7zm2219 301-5-3-4-3v-7l-7-2-5 2-5-7-2-7-5-3-5-8 1-12v-11l4-10s-1-4-4-6l-3-2s-4-8-1-9 10-4 10-4l3-6-2-5-3-4-5-2-9-6-7 4h-7l-2-8-4 2-7-1v-13l-4-5-4-1h-9l-6 2h-5l-3-7-1-4 2-6 4-13 1-7 3-4 4-5 2-8 2-5c6-1 10-2 10-2l1-8 3-7 1-6 2-9 1-9 8-1 7-5 3-4 2-6-5-6s0-1-3-3l-3-2-5-2-7 6-10-4-5-3-3-9v-9l2-4 1-16v-5l1-9v-6l-4-6-7-4-2-6-2-13 7-7 3-5 2-9s1-12-2-12h-8l-2-4-5-5-2-3-9-7 1-11v-5l4-7-4-10 4-8 1-8-5-10c-7-2-13-5-13-5l-3-6s-4-7-4-11 2-7 2-7v-7l-7-10-1-8 1-9 5-1 8 2 8 1 8-4s2-3 5 0l3 3 9 2 9 2 8-4 11-4 3-10-1-9v-12l-2-10 5-2 5-9 2-6v-16l5-4 6-7 10-5 11 14 5 2 9-1 5 8 3 5 5 5 6-1-4-9-4-8-5-4-1-5-4-1-5-7-3-4-6-2-9-9-6-11-8-10-5-5-4-5-4-6-6-1-10-4-8-5-4-5c-7-1-14-1-14-1l-6-2-8-1c-8 5-13 6-13 6-6 1-14 0-17 0s-5-1-10-1-9-1-14 0l-5 1-10-5-8-7s0-4-4-4h-9l-5 1-6-2-5-4-3-7 9-5 4-2-2-7-5-9 3-11-6-3-9-10s-3-2-3-7v-10l3-9-8-10-5-8 1-3 4-3s4-2 7-4l3-2 3-8 7-5 5-8 3-5 2-5s3-3 4-6 5-10 5-10l-3-14-8-5v-7l-3-10-4-8v-9l-4-10-5-2-5-1-10-5-5-4-8-3-9-10-2-7 4-9 2-5-3-11-6-5-3-4c-7 0-7 1-11 0h-4l-8 3-12 4-1-5-2-5-3-10h-11l13-11v-6h-5l-6-2-8-3-5-6-6-2-8-4-4-4-1-6-4-6-4-2-3-6-6-2-3-6c-7 4-11 6-11 6l-6-4 3-24-7 1-11-6-6 1s-3 0-6 1-9 1-9 1h-5s-6 8-7 10c-1 3-1 9-1 9v4l-9 9-2 5-2 5h-5l-5-2-6-2-4-5h-17l-7-7-9 1-5-1-3-6-12 4-5 1h-11l-16-7-6 4s-1 1-7 5l-6 4-5 8-5 3-6-2-4-4h-6l-5-5s-2-11-7-8-13 5-13 5l-5-6-6-2-6 4-10 11-3 7-6 6-8 5-4 2s-4 2-8 3l-3 1-5 5-6 5-5 3-15 2-1 8-4 4-7 6-8 7c-9 4-15 4-15 4l-4 2s-6 3-6 0c0-2-7-2-7-2l-7 9-8 3-8 3-7 4s-3 8-5 11l-2 2s-6 2-10 5l-4 3h-12c-7 3-11 5-11 5h-17s-5 0-9 2l-4 2-9 10s0 2-3 3l-3 2-14 6-9 4-9 1c-9-1-16-4-16-4l-3-5-15-1-6 3-9-4-14-3-5-3-7-3s-7-3-10-2-9 2-9 2l-11-3-7-5-4-6-3-6-8-5-7-5h-6s-5 4-8 4-4-3-8 1c-4 3 3-2-4 3l-7 6-6 1-6-4-9-4-10 1s-3-1-9 4l-7 5s-2 2-6 2h-11l-7-5h-5l-8 4-8 3-9 6s-3-1-4 2c-2 3 2 1-2 3l-5 2-6 3-5 1-8-1-8 3-7 6-16 2h-6l-8 1h-14l-7-4h-4l-9-1h-6l-11-1-6-3h-5l-10-1-5-1-6-1-6-2-6-3-8-5-5-3-5-2-8-1-2-7-1-6-2-8h-7c-3 0-15-4-15-4l-5 9-6 11-6 3h-10l-13-9-10-3-8-5-6-4-10-3s-2-1-6-2-14-4-14-4l-14-1-9-2-9-3-2-14v-6l-5-9-6-2-7-4-10-6-6-3s-5 1-6-2-9-2-9-2l-12-2-10-3s-10-3-12 2-1 10-1 10l-2 5-4 4c-2 3-4 2-7 4l-3 2-15 5-15-5-14-14-6-2s-3-2-3-5 1-12-2-13l-2-1-7-6-6-4-6-6-3-5v-29l-2-8-3-8-2-6-6-4s-3-1-6-3-7-4-7-4l-6-2-8 1s1 0-6 2-7 2-12 4l-10 4s-4-1-7 1c-3 3-1 1-8 4s-8 2-12 4-7 2-12 3c-6 1-17 1-17 1l-10-6c-1 0-8-4-8-4l-5-3-19-9-8-12-5-5s0-5-3-6l-9-6-4-6-7-23-2-9 5-9 7-4 9-4-2-5-5 3h-13l-5-1-5-7-3-8h-13l-9 8s-2 6-3 8l-1 3-10 12s-3 3-7 5c-3 2-11 6-11 6-5 2-8 3-11 2s-10-1-12-1h-11l-12-5-7-2-3-4-15 4c-4 1-11 4-11 4h-38l-8-4-6-3s0-2-10 0c-9 2-3 2-9 2-7 0-23-2-26-2h-32l-13-3s-13-4-16-4-7-1-7-1-6-3-11-3-8-2-12-2h-13c-3 0-5 0-8 1s-1 1-7 6-12 7-15 8-3 0-8 2-11 6-15 6c-3 0-8 3-8 3s-8 2-12 4l-4 2-8 2-4 4s0 2-4 3-13 6-12 5-8-1-8-1h-9l-9 2s-2 2-8 3-10 4-12 5c-3 1-8-1-10 2-2 2-6 3-6 3l-7 4-5 4-13 6s-2 0-7 3-7 4-11 7l-3 3-4 4c-3 4-3 4-7 7l-4 3-7 9-3 5-5 1-4 1-7 1s-8 0-11 2-9 3-9 3 0 4-4 5c-5 1-6 2-10 4s5-5-4 2l-9 7-5 9-12 4s-8 5-11 6 3-5-3 1-11 8-11 8l-16 10c-6 4-8 5-11 7l-4 1-3 10s1 1-2 5-5 10-5 10-4 3-4 6c0 2-3 7-3 7s-4 6-10 8c-5 2-11 4-11 4s-2 3-8 4-9 0-14 2c-6 2-9 1-14 2s-5 0-12 1l-11 2c-6 0-11 1-14 1h-3c-6 0-14-2-14-2s-2-2-9-2-15-2-15-2l-8-3-5-2-11-2h-21s-3-1-6-3-13-8-13-8l-10-4-7-1s-3 0-6 2 3-1-3 2c-5 3-17 3-21 5s-5 1-10 2-12 3-16 3h-12c-5 0-17 1-21 0s-5-3-11-3-9-1-13-1c-5 0-13-2-13-2l-12-3-11-5s-3-2-9-3-8-2-14-2h-15l-9-3-13-5-15-1-5 12-4 8-1 2-4 8-5 2h-6l6-11 9-11 1-8-6-4s-8 3-11 3-4 0-10-2-9-4-9-4l-11-2-9-3-15-8-11-2-7-3-7-4-3-2-9-3-10-7-7-4s-1 0-3-2c-3-2-8-5-8-5l-6-4-7-6-14-7-5-2s-2-2-5-4 3 7-3-2c-6-8 0-2-6-8-6-7-2-1-6-7s-6-10-6-10-4-2-5-5l-3-9s0-3-3-6-7-9-7-9-1-4-2-7-3-8-3-8l-2-7-2-6c-1-3-2-7-2-7l1-6 6-2 4 5 5-1-4-26h-10l-15 4V23h-9l-9 7v11h-5v-9h-19l-4 9h-17l-7 6v3l-7-6v-7h-15l-4-7v-4l-6-3-4-8s3-2 0-5-8-6-8-6-5 3-8 0-15-4-15-4l-8 9-5-2-7 1-4-8h-13v9l-3 3v5l-8 3v5h-14l-13 6-12-6-6 7-5 4s-3-2-6 0l-4 2-8-4-4-2-9 11v17s6 4 0 7c-5 3 1-1-5 3-7 4-8 4-11 4s-14 4-11 0c1-2 2-3 3-4-3 4-13 8-17 5l-4-2v29l6 6 15 5h8l2 10 5 6h13l1 24 4 21 5 12-3 20h-28l-2 9-5 5-9 6h-12l-4 10v31l6 5-6 6 5 6-1 10-4 7 4 9h-12l-6 6-4 6v4l-6 4v8h-9v5s1 3 0 6-3 4-4 7-9 7-9 7l-6 4v16l3 11h7l10 6h50l6-5 14 5 7-5s3-6 6-6h3l11-2s8-1 10-1c3 0 10-2 10-2l8-2 6 5 2 5 2 3-1 5-4 4c-3 3-16 7-16 7h-7l-1 5-3 4h-4s1-4-5 0l-6 4-9 3h-3l-7 4h-4l-4 5h-6l-7 7s0-6-3 0c-2 6-9 10-9 10h-5l-9 5h-6l-3 7-1 4 2 13 6 4c3 2-1 1 3 2s4 4 1 7-8 7-8 7l-3 5-5 8-1 6-4 8-2 9v5h11l4-7 5-2c7-6 17-13 17-13l5-7-1-12 12-11 13-3 10-14 14-12 3-8s-1-5 3-5 8-4 8-4l4-11 12-3 12-11 10-3s0-3 7-4 9-1 12-3 9-5 9-5l5-6 10-5 13-6s2-2 4-3l14-5 11-6s2-3 3-6-5 6 1-3l5-8 11-10 4-8s5-6 6-8c1-3 3-8 3-8l3-8 1-8 3-5 4-3c3-3 11-7 11-7h22l13 2 6-2s5-3 6 0l1 3s11 2 14 2 7 1 11 0l3-1s3-7 6-7 7-3 7-3l19-15h31l4 8 19 1s2 2 5 3 8 3 8 3l13 5 5-6 11 7v8h6l7 1 11-1c12-2 21-2 21-2s4 0 8-2l8-4 15 2 10 6c5 4 7 3 9 7 3 4 4 6 7 10s17 7 17 7l19 7v4l-5 5 9 4v6l4 3s6 2 9 2c2 0-6 1 2 0l9-1v-4s11-3 13 0l2 3s4 2 6 1c3-1 8-2 11-2h9l9 2 4 1 7 1 8 1 6-3h11s1-2 4 0-2-1 3 2 0 8 0 8l-11 3h-14l-18 1-12 3c-4 1-16 1-16 1l-7-3-3-5h-4l-4 3-8 4h-8l-4-3-5 5-4 4-11 1-4 2h-5l-10-1h-9l-5 3-7 2-8-3h-5l-4 5-4 4-3 4-4 1-4 1s-5 1-8 3-9 3-9 3l-7 10v5l7 6h17c3 0 9 2 9 2l6 1 9 3s2 0 6 1 7 1 7 1l7 5s-1 5-4 7-8 3-8 3l-2 5-2 4-7 2h-4l-10-2-11-2-9-2h-18l-4 1s-3 3-7 4l-4 1-10 2-6-1-15-7h-13s-3 1-11 2-12 0-16 0-9-3-13-3-6-1-10-1h-14c-6 0-10-3-14 0s-13 2-13 2c-5 4-11 4-11 4l-4 2-7-7 10-3 7-3 10-4 2-8-2-6-13-2s-14-2-17-2-14-4-14-4h-18l-5 2-1 6v9l3 5c5 3 0 2 5 3s10 4 10 4l10 3 4 1 5 6-10 7s-3 0-4 3 6 0-1 3c-8 3-15 3-15 3s-9-4-12-4h-9l-11 1-6 5s-4-2-6-2c-3 0-7-1-7-1l-10-6-6-3-7-3-4-2-5-5 2-7 3-6-6-4-3-4-6 2-7 2-4 4-5-4s-6-4-9-2l-3 2-7 6s1 1-3 4l-4 3-4 2s-5-1-10-1h-5l-7-1-7-1-6-3-17 3-4 2-5 5-5 3-3 4s0 3-2 6l-2 3-8 6-4 2-9 8-12 7-4 5-4 1-5 10-2 8-3 8-5 4-4 6-1 7-11 7-11 3h-6l-7 5-1 9 1 12-3 12 2 9v11l-2 8 1 13 1 9-2 10-2 4-2 4s-5 2-5 8-3 12-3 12l-1 5 3 7s2-3 8 0 4-3 14 0c9 3 16 1 16 1s1-2 5-4 3-5 11-5c7 0 7 1 16-2 9-2 9-4 14-4h12l7-2 2-8s0-1 12-1h16s5-2 11-2 11-2 11-2l11-2s1 2 2 6 0-1 1 4-3 12-3 12l-13 4-8 11v7l-6 6h-3l-5 6h-4l-5 6h-4l-6 10-3 8h5l3 5s2-1 4 0l3 1s2 5 2 8v3l10 7 3 5 3 4s2-7 3 0c1 6 4 10 4 10l3 5 3 5-4 5s-7 4-9 6l-2 1-3 10 3 7s2-5 4 0-4 1 2 5 6-5 9 0c4 5 12 1 12 1l5 1 6 5 7-6 5 6-3 10h-6l-11 5 3 6h-6l-7 6-1 7v6h-16s-6-1-8 0-6 0-6 0l-5 8-1 10s1 6 3 8c2 3 10 8 10 8s2 0 4 5 7 9 7 9l5 9 3 5s0 2 2 5 7 6 7 6h10s1-3 4 0 6 0 6 0l14 1 2 7s1 2 1 6v3h-29l-4 6h-11s-2 1-5 0c-2-1-9 1-9 1h-9l-1-5-4-5v-5l-1-4-6-1-2 5-4 9 2 6v10s-5 1-8 0-4-10-4-10l1-6-3-5-7-5v-11l8-3 3-9-5-1-6-8-3-9s4-6 0-7l-4-1-7-6s-3-3-6-4-5-5-8-5-9-1-9-1-2-3-6 1l-4 4s-3 7-3 10-1 9-1 9 0 3 1 6 8 8 8 8l3 5s1 2 2 5 5 7 5 7l8 6 6 3-6 4s-1 3-2 5c-1 3-2 8-2 8v5h-10v5h-10l-4-4v-10l-4 1-1 8-2 5s3 3 0 6l-3 3h-7v4h9l4 5h9l4 6h11l4 6 5 7h11l1 9 4 4h13l4-7s1-4 1-7-14 0 0-3l13-3h7l8-1s2 6 2 9c1 0 5 1 5 1l2 5c2 4 2 11 2 11l2 6v10l6 5h4l1-11h17l11 3 4 8 6 7h9l8 5s0-1 3 0-6-1 3 1l10 2s0 6 1 10-3 10-3 10l-6 14s1 5 4 8 3 13 3 13l-7 6s-9 7-12 8-12 0-12 0h-14l-4 6v6h3l8 6h23l6 7s-1 0-4 5l-2 7v6h3l5 6-3 8v7c0 3 4 7 4 7l-6 9 3 12h24l1-11 4-7 6-1 7 1 4 4-5 3-6 4v7l5 6h9l3-10 4 5v5l-5 6 4 5h11l8-5 4 5-5 4-3 6h-3v10l2 6-2 6-5 5h-14l-2-9h-5l-6-1-7 1h-9l-5 4-9 5-1 6v5l2 10s-1-1 0 4c1 6 6 12 6 12l8-4s2-1 4-4l2-3s-1-3 3-4h11c3 0 10 1 10 1l11 5h5l9-2s7-1 11 0l3 1 22 2 9-2 8-1c8-1 11 0 16-1s12-6 12-6 2 1 8 1h26c6 0 15-1 15-1l14-5s-4 3 2 5-6 7-6 7-2-1-5 0-10 4-10 4l-4 3-5 4h-28l-7 5v11h7s5 0 0 5l-5 6-2 5h8s3 6 0 8l-3 2h-25s-1 4-7 0l-6-4h-16l-8-2-12 1-4 6c-1 5-5 5-5 5s4-3-6 0c-10 2-12-4-15 0-2 3-8 5-8 5s-7-6-8 0c-1 7-1 11-1 11h-8l-4 7s2 5 7 6 10 0 10 0l15-4 5-2h11l5 2 6-4 6-7 4-6 6-7c15 2 22 2 22 2l16 2h19l11-7 6-12 5 5 3 4-4 4s-5 4-8 5 3 5 3 5l-8 2-8 2-4 4-6 1 6 5h11l5 1v5l-9 4h-7v11h18l4-6c7-6 0-3 7-6l8-4s1-6 4-6h3l3-10h9l3-8c-4-3 0 4-4-3-4-8-7-12-7-12s-3-5 1-5 5-4 5-4 4-3 6-1c3 2 7 9 7 9l3 5 5 2 5-2 4-10 4-7s4-3 5 0 1 8 1 8v5l3 4h8l6-5 5 2 9 6v7l-2 7 12 5 8 1s2 0 5 1l3 1h6l2 4 4 4 2 5 1 6v7h9v-9l-3-5v-6l3-5 6-2 4-4s3-2 10 1 15 6 15 6l7 2 4 6-3 4-8 1-4 4c-1 6-3 12-3 12v9h10l1-5 4 5h5s3 2-1 5c-4 2-2-2-4 2-1 5 2 13 2 13l1 9v5l1 7h9s-1 1 3 4l8 6 12 13 10 6h17l9 7h18l7 5h4l1 7c8 6 2 5 8 6l6 1h27s3-8 6-8-5 6 3 0c7-6-1 0 7-6l9-6 12 2h5v-5s6-6 10-6h11l10-11s1-3 5-2c5 1 5 0 12 2l7 2 8 2s3 0 6 1l3 1v13l11 1v-7s2-5 5-6 6-6 6-6v-5l5-6-7-8-1-7 1-4c5-5 7-9 7-9-1-5 0-12 0-12l5-5v-5l7-7v-5l-5-9v-9l5-7-5-8v-8l5-7v-9l5-5 6-3c6 0 12-2 17 0s22 4 22 4l16-2h11s4 0 8 2c5 2 14 2 14 2s1 0 5 1 8 1 12 2 13 1 13 1 4-1 9 2l5 3s1 1 7 3l12 4 5 2s1 2 5 3c3 1 9 1 9 1s4 3 6 6l2 3s6 5 10 6l4 1s4 0 6 3c3 3 8 5 8 5s3 1 6 3c3 1-3 0 9 5 11 6 1 6 11 6 11 0 19 1 19 1l4 2 7 8 4 3 4 3s3 2 6 3c3 0-3-4 3 0l6 5 5 5c4 5 1-2 4 5 4 7 4 8 6 12l2 4s-7-2 0 5c7 8 13 14 13 14l5 4v4l4 5s2 3 5 5 3 3 7 4l4 1v6s2 0 6 4l4 4 6 4 4 5h5v5s7-5 11 0l4 5 8 5c7 5 0 3 7 5s26 0 26 0l11 1h11l5-9 13-4s0-4 7-3l13 2 6 1 5-5c7-2 12-2 12-2s6-2 11 0c6 2 12-1 12-1l10-1 6-7s2 2 5 4 11 2 11 2l8 2h4s2-1 6-1c5 0 10-1 10-1v-5s2-3 7-3h12l7-5s2-1 4-5l2-4 6-7s3-1 5-4 6-5 6-5 4-5 7-5 5-2 8 0 0 11 0 11l1 5 7 1v-10l7-2 8-4 9-11v-16l6-4s1 1 4-1l11-7 4-7 14-24 5-3 8-10 9-6 11-7 9-4 6-8 5-6s6-1 11-3 9-4 9-4l8-3h17l7 1s3 0 6 3l3 3s4 3 8 5 9 5 9 5 0 1 4 3c3 2 11 4 11 4l10 5s1-1 6 3 0-2 5 4l4 5 7 7s4 0 11 4 11 6 11 6l8 7 10 1 10-4s-3-1 0-4l3-3h11l5 1s7 1 11 1h4l9-6v-10l5-7 6-3v-5l5-2v-8h-5l-3 4s-8 1-11 3-8 2-8 2v-6l8-6s-3-3 4-3c7-1-1 0 7-1s14-3 14-3l7 3h6l4-3 5-6 4-4 5-3 3-13 6-5 16-5 9 1s3 3 4 7c1 3 4 6 8 8l4 2 7 6s1 4 0 7 1 7 0 10v14c1 4 0 13 0 13v11l-4 1-5 3-10 7-5 4-4 3c-4 5-12 13-12 13l-10 6-9 2-3 8v8l-7 2s1 3-2 5-9 1-12 7l-3 6s10 4 11 7 7 12 7 12l22 52-9 16-1 7h18l-1 6 6 5h13l13 17 7-32s7 0 6-4 4-6 4-6l9 3v-9l13 5 5-4v-51l5-2 10 1 6-3 4-5s0-1 6 1c5 2 11 3 11 3l9 2 5-3 4-6v-8s7-4 0-8l-8-4-6-5-1-9-6-13-6-4-1-9 4-7v-9l1-9 4-10-1-7v-6l5-3 4-11 3-7 4-7 7-11 11 9 6 1 14 4 8 3 17-1v10l11 2v18l7 3 6-1 4-6 8 1h18s8 3 11 5 9 2 9 2l11 2 7 2 7-6 1-1v-4l2-1c2-2 5-4 9-4l8-5 17-6 17-1 9 1 11-7 18-12s2-3 6-3c3 0 8-5 8-5s6-1 10-3 13-7 13-7l11-1 10-1 13-3h18s0-2 6 0l6 2 6 4 4 4s9 6 12 6-2-6 3 0 7 11 7 11l4 3 11 6 7 12s5 2 9 3c3 1 10 3 16 3h15l17-2 14 3s3 2 10 3l7 1h36c8 0 27-9 27-9l25-2 20-10h20l11-7 20-6 14-7c3-2 13-7 13-7s6-3 9-3 6-2 9-2c2 0 8-3 8-3v-4l9-3 9-4 7-3 10-13 12-4h12l9-3 14-9 14-7 13-5 9-1h41l6 3s6 0 10 2l8 4 8 3 6 4 7 1s6-2 9-2c2 0 9-2 9-2l7-1s3-2 11-2h7l12-4 6-2 12 1 9-1c5-1 19-6 22-6h9c6 0 18-3 21-4 3 0 17-5 17-5l5 1 6-11 10-6 8-12 5-8v-6l6 10v5l14 1 6 5v23l7 8 13 1v-3l9-1 9-2h5l9-2 4-9v-8l11-8v-5l10-3v-6l8-11 6-5s2-2 5-1l3 1 6 6 8 5h4l8 1h8l7-3 12-7s3-4 6-4 13 7 13 7h7l9 4v9h6l7-3 7-1s-7 4 0 5c6 1 14 5 14 5l5 5 6 3h10l5-3 12 8s8-3 9 0 7 1 7 1l7-1s3-3 6-2l3 1 12 10 4-7 7-2 5-2v-6s-6-1 0-3 13-8 13-8v-5s11-1 14-2 11 0 11 0l9 4 9 5s-4 2 0 4l4 3 6 6v7l5 3v5l-9 5-5 4-4 4s-1 1-1 5-2-3 0 4-4 3 2 7l7 4v4l4 9 6 6 9-4v-4l5-4v-6l7-1 7-1 8-4v-4l9-5 9-8 5-4v-4l8-1v-4l11 4c5 1 12 1 12 1l6-1v-21l8-7v-7l-4-3-5-2zM2970 12260v-1831h226v1632h736v199h-962zm1289 0v-1136h216v1136h-216zm110-1504c-25 0-48-6-68-18-21-12-37-29-49-49s-19-43-19-68 7-47 19-67c12-21 28-37 49-49 20-12 43-18 68-18a130.4 130.4 0 0 1 116 67c12 20 18 42 18 67s-6 48-18 68-28 37-48 49-43 18-68 18zm1091 1539c-86 0-166-15-241-45-76-30-142-73-199-128-57-54-101-118-134-192-32-73-48-152-48-238 0-85 15-163 47-236 31-73 74-137 131-192 56-55 122-98 197-129 76-31 158-47 246-47 75 0 146 11 213 33 68 21 125 51 172 88l-82 145c-74-57-166-86-274-86-86 0-161 19-226 57-64 38-114 89-149 154-35 64-53 135-53 213 0 80 18 151 55 215 36 64 87 115 151 152 65 38 140 57 224 57 53 0 102-8 149-23s87-37 122-64l83 145c-48 37-105 66-172 88-66 22-137 33-212 33zm1250 0c-119 0-226-26-321-78-95-53-170-125-224-215-55-91-83-193-83-307 0-84 16-163 47-236 31-74 75-138 130-194a602.7 602.7 0 0 1 429-177c119 0 223 24 312 73s159 117 209 205c50 87 75 188 75 304 0 9-1 17-1 23-1 6-3 14-5 23h-978c0 79 18 149 54 210s86 108 149 142c64 35 136 52 218 52 78 0 148-16 209-48 62-31 115-79 160-142l158 82c-54 90-128 160-223 209-94 50-199 74-315 74zm-399-738h756c-10-58-33-109-68-153s-79-79-132-104c-53-24-112-37-176-37-66 0-126 12-180 36s-98 58-132 102c-35 44-57 97-68 156zm1327 703v-1136h216v146c34-52 85-95 150-130s142-52 232-52c88 0 164 18 229 55 64 36 114 89 149 158 36 69 53 151 53 246v713h-215v-669c0-107-26-189-77-245-51-57-123-86-216-86-63 0-118 13-163 38-46 26-81 60-106 102-24 43-36 89-36 140v720h-216zm1994 35c-86 0-167-15-242-45s-141-73-198-128a578 578 0 0 1-134-192c-32-73-49-152-49-238 0-85 16-163 47-236s75-137 131-192 122-98 198-129c75-31 157-47 245-47 75 0 146 11 214 33 67 21 124 51 171 88l-81 145c-75-57-166-86-275-86-86 0-161 19-225 57-65 38-114 89-149 154-36 64-53 135-53 213 0 80 18 151 54 215s87 115 152 152c65 38 139 57 224 57 52 0 102-8 149-23 46-15 87-37 122-64l82 145c-47 37-104 66-171 88s-138 33-212 33zm1250 0c-120 0-227-26-321-78-95-53-170-125-225-215-55-91-82-193-82-307 0-84 15-163 47-236 31-74 74-138 130-194 55-56 120-99 193-130s152-47 235-47c119 0 223 24 312 73 90 49 159 117 209 205 50 87 75 188 75 304 0 9 0 17-1 23s-2 14-4 23h-978c0 79 18 149 54 210s85 108 149 142c63 35 136 52 218 52 78 0 147-16 209-48 61-31 115-79 160-142l158 82c-55 90-129 160-223 209-95 50-200 74-315 74zm-399-738h755c-10-58-33-109-68-153s-79-79-132-104c-53-24-111-37-175-37-67 0-127 12-181 36-53 24-97 58-132 102-34 44-57 97-67 156zm1773 703 726-1831h210l726 1831h-244l-203-534h-768l-205 534h-242zm524-732h614l-308-798-306 798zm2617 767c-103 0-195-17-278-50-82-34-153-80-211-138-58-59-103-126-134-201-31-76-46-155-46-239 0-92 20-189 60-289 41-100 94-190 162-271l567-678h274l-559 664c34-18 70-32 107-41 38-9 77-14 118-14 82 0 159 15 231 46s134 74 189 131c54 56 96 122 127 199 31 76 46 161 46 253 0 123-28 232-83 327-56 94-133 168-231 222-98 53-211 79-339 79zm-9-190c84 0 159-19 225-57 66-37 118-88 156-153s56-139 56-222c0-84-18-160-57-226-38-66-89-118-154-157-65-38-137-57-216-57-81 0-155 20-222 59-66 39-119 93-159 160-39 67-59 143-59 226 0 78 17 149 53 214 35 65 85 116 150 155 64 38 140 58 227 58zm906 155 903-1632h-877v-199h1210v71l-969 1760h-267zm1423 0 902-1632h-877v-199h1210v71l-969 1760h-266zm1709 0 569-675c-63 44-137 66-221 66a592.6 592.6 0 0 1-426-179c-56-56-100-123-133-200-32-77-48-161-48-253 0-117 27-224 81-318 53-94 129-169 227-224 97-55 212-82 343-82 133 0 249 27 350 83s180 132 236 228c57 95 85 203 85 323 0 57-5 110-14 159-10 49-24 95-44 139-19 44-42 87-70 129s-60 84-95 126l-566 678h-274zm402-808c59 0 115-11 166-34 52-23 97-54 136-94 39-41 69-87 91-139 23-53 34-109 34-169 0-83-18-157-55-221s-87-115-151-152c-64-36-138-54-221-54s-157 18-223 55c-65 37-117 88-155 152-38 65-56 138-56 220s19 156 57 222 90 118 156 156c65 39 139 58 221 58z"/></svg>